<svg xmlns="http://www.w3.org/2000/svg" viewBox="0 0 354.78749 275.31387"><defs><style>.cls-1{fill:#c63030;}.cls-2{fill:#ec6225;}.cls-3{fill:#b3b4b4;}.cls-4{fill-rule:evenodd;}</style></defs><title>schriftzug</title><g id="Ebene_2" data-name="Ebene 2"><path class="cls-1" d="M252.42579,326.8594s17.01321,28.0654,2.54,53.6357c-12.6142,22.2857-8.3232,57.0401,22.603,58.5889,0,0-26.08879-10.4238,1.4546-65.2075C285.71969,354.9087,260.73339,329.0708,252.42579,326.8594Z" transform="translate(-125.75962 -261)"/><path class="cls-1" d="M311.73829,438.9316s26.9629-16.4306-11.8789-90.0678c-12.48639-24.1514,13.8164-40.7168,16.5547-43.5415,0,0,12.0517-8.6148,2.9521-25.253,0,0,12.7901,12.2681.9609,29.4605-12.9023,21.4331-2.0224,34.1206-2.0224,34.1206S387.72069,443.4883,311.73829,438.9316Z" transform="translate(-125.75962 -261)"/><path class="cls-2" d="M292.32519,343.8179c-10.3023-19.3936,4.1211-40.7241,4.1211-40.7241-14.9077,17.5136-16.0044,22.1357-13.2109,44.1782,5.0898,40.1792-5.6358,24.6347-11.3331,61.3896a29.247,29.247,0,0,0-.4648,5.2759V414.5c-.1221,1.5146.08351,2.563.08351,4,0,11.3789,10.12989,20.584,22.37989,20.584,12.2495,0,22.1802-9.2256,22.1802-20.605C317.50489,391.9048,298.62449,355.8174,292.32519,343.8179Z" transform="translate(-125.75962 -261)"/><path class="cls-1" d="M275.47749,316.1841s-15.6953-13.0903,0-32.604c12.9756-16.1323,10.0606-22.3018,10.0606-22.3018s5.1504,10.3633-4.9702,28.9678C270.14159,309.4131,275.47749,316.1841,275.47749,316.1841Z" transform="translate(-125.75962 -261)"/><rect class="cls-3" x="68.49038" width="42.25" height="178.25"/><rect class="cls-3" x="234.49038" width="42.25" height="178.25"/></g><g id="Lamprecht"><g id="Lam"><path id="Zusammenschluss" d="M480.25879,482.8252c-.4912-.6289-1.0811-.2178-1.7031-.2461-.05569-.002.7275-.2744.5029-.1982-.0547.0185-.1094.0371-.1631.0556.0068-.0029-.0234.0078-.0859.0293l-.0205.0069-.0362.0117-.0205.0068c-2.8066.9473-6.0088.8477-8.9316.7432-1.0733-.0381-2.1377-.0742-3.2129-.0635-1.50289.0166-4.1113.292-5.3623-.6982-1.7578-1.3916.873-5.0498,1.5019-6.4893.2461-.5625.876-1.8184.2364-2.3438-.8614-.707-2.9073.0967-3.7481.4454a6.83194,6.83194,0,0,0-3.2724,2.8759c-.7969,1.3682-.8291,3.0401-1.7393,4.3438-1.4668,2.1025-4.3779,1.7158-6.5898,2.1357a6.25173,6.25173,0,0,0-3.3047,1.503c-1.0049,1.0312-.6553,2.2636.7929,2.3808,2.0323.1631,7.417-1.4248,7.2237,2.1582a10.99574,10.99574,0,0,1-1.25,3.8223,48.59979,48.59979,0,0,1-2.3301,4.7705,51.75315,51.75315,0,0,1-5.6416,7.5391c-1.4024,1.5957-3.3164,3.8925-5.5566,4.2324-3.0303.459-3.2784-4.5127-3.42-6.4082-.3994-5.375,1.7617-17.9971-6.7402-17.876-3.6182.0508-6.4199,2.0547-8.7754,4.6328-1.0596,1.1592-2.1172,2.334-3.084,3.5723-.415.5312-1.3935,2.5312-2.083,2.6699-.7549.1523.1104-8.2109.2568-9.1113a102.457,102.457,0,0,1,2.6836-11.9502c.5518-1.9092,1.5469-4.1299,1.15731-6.1533-.48051-2.4883-4.31941-.7832-5.86921-.4873a12.731,12.731,0,0,1-4.63079.0742c-1.11821-.2071-2.18461-.6348-3.32131-.7549-.8692-.0918-1.8242.0928-1.6455,1.1826a5.9061,5.9061,0,0,0,3.1133,3.792c1.3847.7754,2.9707.4678,4.30951,1.1582,1.11619.5752,1.12109,1.8926.98239,2.9814a114.219,114.219,0,0,1-2.2861,11.5967,29.37306,29.37306,0,0,1-4.3389,10.5508,59.41252,59.41252,0,0,1-8.0078,8.791,21.07734,21.07734,0,0,1-9.1015,5.3614,9.14613,9.14613,0,0,1-8.125-1.5293,10.96294,10.96294,0,0,1-3.4834-8.6915c.1455-6.1396,4.1679-12.1191,10.1406-13.9941a4.98545,4.98545,0,0,1,3.6895.0479c1.25.6181,1.7656,1.8642,2.3427,3.0439.4102.8389.9971,1.9102,2.0977,1.7481a4.60264,4.60264,0,0,0,3.2334-3.1368c1.2012-3.9638-3.89359-5.1992-6.7569-5.2675-3.7089-.0879-7.2939.3173-10.5351,2.2607-3.3858,2.0303-5.5059,5.1914-7.6709,8.3906a50.946,50.946,0,0,1-7.9092,9.3164,34.09418,34.09418,0,0,1-9.89649,6.5196c-3.19041,1.291-7.22171,2.1523-10.21381-.0782-1.7774-1.3252-4.6426-5.7236-.9834-6.6357,1.7705-.4414,3.6445-.4238,5.4306-.875a22.75515,22.75515,0,0,0,5.7217-2.3584c2.9648-1.6992,6.208-4.2217,7.1836-7.6572a7.15667,7.15667,0,0,0-2.166-7.3682c-5.584-4.7969-15.0225-.2715-19.2754,4.2568-4.4541,4.7422-6.0049,12.6592-4.1035,18.837,1.9717,6.4023,8.1338,8.6738,14.2959,7.4648a30.24418,30.24418,0,0,0,5.3681-1.4922,21.64667,21.64667,0,0,0,5.2227-3.2695c1.6406-1.2676,3.2851-2.5293,4.917-3.8086.8193-.6426,2.23051-2.2774,3.4473-2.0908.9658.1484,1.3671,1.542,1.6201,2.3076a18.30253,18.30253,0,0,0,1.8955,4.8974c2.01461,2.9454,5.7763,4.2549,9.2129,4.4278a18.24476,18.24476,0,0,0,10.71871-2.9873c3.31149-2.1494,5.98339-5.1895,8.90039-7.8194.502-.4531,3.1748-3.2207,3.0479-1.082-.1602,2.7061-1.5225,5.2979-1.378,8.0186.1035,1.9658,2.6885,5.3017,4.4776,2.8408,1.2968-1.7832,1.5175-4.2988,2.3828-6.3028a99.40531,99.40531,0,0,1,6.1465-10.9951c1.7314-2.9258,3.5693-6.2802,6.499-8.1777,2.1641-1.4014,4.707-1.4141,5.7031,1.3135,1.4219,3.8906.499,8.3984.63871,12.4394.11619,3.3701.77239,7.3955,4.10939,9.0635,3.55561,1.7783,7.1904-.7539,9.7158-3.1934,1.3056-1.2607,2.3525-2.8671,3.7353-4.0283,1.4453-1.2138,2.6104-.2412,2.6504,1.3731.08011,3.2675,1.8946,7.3164,5.083,8.6601,2.70411,1.1397,6.1826.2813,8.6397-1.1162,2.623-1.4932,5.9287-3.8135,6.8799-6.8428a5.20434,5.20434,0,0,0,.2314-2.7558c-.3545-1.3135-1.6621.0205-2.1348.5029-2.2627,2.3115-5.0537,5.3399-8.6562,4.7354-4.8281-.8106-4.8643-6.8096-4.3828-10.5362a64.50119,64.50119,0,0,1,1.5957-7.5273c.5166-2.0342.8896-4.3447,2.2705-6.0078,1.543-1.8594,4.6826-1.3682,6.8418-1.3623,2.7158.0078,5.3974.2636,8.1025.4394,2.15241.1397,4.5703.0166,6.2061-1.583C480.16989,485.1211,480.99509,483.7695,480.25879,482.8252ZM341.65629,499.125c.0556-.1826.1083-.3652.163-.5479-.0918.3086-.1601.5401-.1435.4864.2734-.9219.4131-1.3906.4717-1.5889l.0029-.0107c-.0752.2617-.1543.5224-.23239.7822.166-.5606.33689-1.1357.22949-.7715-.1504.5264-.3164,1.0791-.4717,1.5889a15.69139,15.69139,0,0,1,6.6953-9.0156c2.29591-1.3291,7.1113-1.9952,7.4775,1.7744.36141,3.7148-3.456,6.7256-6.3769,8.205a12.55823,12.55823,0,0,1-5.9346,1.6875c-.7256-.0361-1.7764-.2802-1.9199-1.1464a4.26469,4.26469,0,0,1,.0039-1.3243q-.06735.2271-.1348.4541A4.58591,4.58591,0,0,1,341.65629,499.125Zm135.8945-16.2334c.0234-.0078.0527-.0176.07621-.0264l.01069-.0029C477.60249,482.874,477.57619,482.8828,477.55079,482.8916Zm.8281-.2803c-.0332.0117-.0674.0225-.1016.0342-.125.042-.249.084-.373.126.1143-.0391.252-.085.4092-.1387-.1211.041-.2393.0811-.3526.1192.1748-.0596.3496-.1182.49611-.168-.04591.0156-.09571.0322-.14351.0488.0566-.0195.0947-.0322.1582-.0537l.0078-.002C478.44629,482.5879,478.41309,482.5996,478.37889,482.6113Zm.1065-.0361.01361-.0049.041-.0137C478.52339,482.5625,478.50289,482.5684,478.48539,482.5752Z" transform="translate(-125.75962 -261)"/><g id="Teil1"><path d="M298.31589,491.2891l-.0097-.0205a9.75281,9.75281,0,0,0-7.2291-5.2227,18.57446,18.57446,0,0,0-4.5234-.2598c-1.9399.1084-3.3384,1.4258-5.1606,1.8936-3.2046.8223-2.084-3.8721-4.9795-3.4043-3.7339.6035-3.68459,6.1006-4.1079,8.8467-.5674,3.6855-2.5498,6.9453-4.8106,9.8388-1.0918,1.3965-2.2627,2.7305-3.4365,4.0586a31.38749,31.38749,0,0,1-3.7783,4c-1.1236.8907-2.7085,1.795-4.1758,1.2344-1.5723-.6006-1.9087-2.3935-1.876-3.8828.0913-4.1592,1.8853-8.2422,2.5767-12.3291.52781-3.1211,1.3594-8.4297-2.3906-9.9649-3.1753-1.2998-6.2574.877-8.3614,3.0499a52.00611,52.00611,0,0,0-7.1509,9.539c-1.52,2.5293-2.9409,5.5156-5.0175,7.6465.59321-5.5156,4.2485-11.1094,2.9751-16.7686-.5122-2.2763-2.4732-4.3339-4.9556-4.0078-2.4692.3252-4.5454,2.3672-6.147,4.1162a77.32184,77.32184,0,0,0-4.7729,6.1338c-1.2959,1.7373-2.6255,3.4483-3.9278,5.1797-.63959.8506-1.59659,2.1973-1.5815.333.02691-3.2695,1.1992-6.5586.8467-9.8242-.1524-1.4131-.7969-3.2754-2.4771-3.3135-.80469-.0185-1.5903.2168-2.3945.209-.5796-.0049-1.3628-.2207-1.708.417-.4649.8574.1416,2.1611.4761,2.9639.7793,1.8691-1.3955,3.6006-2.4038,4.915-2.5303,3.2969-4.8609,6.6299-7.9751,9.4219-1.962,1.7598-5.8101,5.4834-8.6797,3.6309-2.2871-1.4766-2.1617-5.1856-2.0855-7.5547a36.42778,36.42778,0,0,1,2.1216-11.1123c.4014-1.1221,2.1318-4.3711.811-5.3643-.9502-.7129-2.7456.2715-3.6464.5977a7.63951,7.63951,0,0,1-5.6006.1259,17.544,17.544,0,0,0-10.875-.3154c-5.6162,1.708-9.3604,7.1309-11.3579,12.3701a27.72771,27.72771,0,0,0-1.8443,8.7647c-.1035,2.6826.1143,5.874,1.6773,8.1562,3.937,5.7481,11.5.6299,14.9887-2.7754,1.8116-1.7685,3.0118-3.9609,4.6177-5.8935a7.11907,7.11907,0,0,1,2.1318-1.96c1.0943-.5332,1.3623.6533,1.5498,1.4883.7256,3.2324.3409,7.582,3.8448,9.2793,3.0473,1.4766,6.6201-.0996,9.1767-1.8701,2.8667-1.9864,5.1299-4.6836,7.5166-7.1914a28.75637,28.75637,0,0,1,3.49269-3.2959c1.3648-1.0205,2.1128-.75,2.0942.9892-.0327,3.1446-1.0966,6.1846-1.1333,9.3125a5.30145,5.30145,0,0,0,1.1377,3.708c.7906.8604,2.4703,1.6807,3.6304,1.1094,1.7412-.8574,1.4497-4.4023,1.8985-6.0068a38.95494,38.95494,0,0,1,5.3427-11.0098,39.75888,39.75888,0,0,1,5.6275-7.0303,6.12941,6.12941,0,0,1,2.6347-1.7246c1.2364-.2607,1.584,1.2207,1.6494,2.1602.2154,3.0869-1.0747,6.4609-1.645,9.4756-.39449,2.083-.8086,4.1631-1.2954,6.2265-.45309,1.9209-1.2475,3.9639-.4946,5.917.5337,1.3838,1.9697,2.5811,3.4819,1.791a3.47409,3.47409,0,0,0,1.4947-1.9668,14.91086,14.91086,0,0,1,1.4565-2.9716c2.4121-3.7198,4.7363-7.4961,7.2129-11.1739,1.8237-2.708,3.5796-5.9785,5.9306-8.2675.7374-.7188,2.1182-1.8291,3.23491-1.337,1.01119.4473,1.05269,1.9942,1.043,2.9219-.03861,3.6826-1.45361,7.2539-2.11721,10.8447-.6294,3.4073-.8467,8.1407,1.8384,10.8077,4.3745,4.3447,11.6714-2.4063,14.4673-5.5137.6147-.6836,3.123-4.1289,3.1513-1.3623.0401,3.8594-1.1206,7.8525-1.8066,11.6279-.5664,3.1172-1.1333,6.292-1.501,9.4414-.2974,2.5459-.0415,5.3682,3.1992,5.167,1.0904-.0674,3.0962-.4033,2.9624-1.876-.1006-1.1064-.7426-2.0595-.7993-3.1953a21.32285,21.32285,0,0,1,.6934-5.7754c.4092-1.7666.6865-3.5595,1.1318-5.3203.2832-1.1172.5176-2.5498,1.5449-3.2392,1.2359-.8311,2.812-.3135,4.13241-.043C291.30809,519.6113,304.32129,503.9209,298.31589,491.2891Zm-114.1543,2.6416-6.6255,9.4179a53.12879,53.12879,0,0,1-4.0727,5.5157c-1.3301,1.4716-3.4292,3.5576-5.6236,3.1367-4.7182-.9063-3.5131-8.2315-2.6972-11.3223,1.062-4.0224,3.105-8.6406,7.0879-10.5293,2.1924-1.04,4.5122-.7558,6.7885-.1562a13.34763,13.34763,0,0,1,3.5245,1.4297C183.1699,491.8008,184.7568,492.999,184.1616,493.9307Zm109.5884,7.208.00339-.0137-.0019.0088.0024-.0108.0005-.0019.0034-.0147v.002c-.00879.0371-.0176.0742-.0259.1123l-.0244.1045-.0137.0596c.0298-.128.05721-.2461.0728-.3135l-.0059.0234c.0362-.1552.0489-.208.0196-.082l-.0137.0586.0029-.0117c-.7104,3.0713-.3969,1.7138-.1562.6728.0088-.0381.0176-.0761.0259-.1133.00781-.0332.0151-.0654.0239-.1015l.0088-.0381c.021-.0918.042-.1826.063-.2744-.04689.2041-.0933.4062-.1411.6094.01021-.043.0141-.0909.0234-.1348-1.272,5.1045-3.9815,11.3027-9.648,12.4287-2.7153.54-6.67719.1807-8.40519-2.3018-1.65681-2.3808-.52351-5.6464-.08551-8.2285.5791-3.4101.5137-6.6914,3.0127-9.3808,2.0127-2.1651,5.1113-4.2774,8.2041-4.0625,5.1196.3545,7.876,7.0644,6.9219,11.5449C293.66209,501.499,293.70849,501.3164,293.75,501.1387Z" transform="translate(-125.75962 -261)"/><path class="cls-4" d="M153.293,511.3281c-.4688-.7236-1.9717.5625-2.4136.7735-2.6309,1.2529-5.7007,1.4004-8.5606,1.5898-2.934.1953-6.3012.3496-8.7163-1.6523-2.3003-1.9073-1.625-5.1006-1.0893-7.6436,1.5322-7.2793,2.9975-14.5752,4.5102-21.8603.8941-4.3038,1.6192-8.6651,2.7442-12.917.5-1.8887,1.7641-5.127.164-6.8018-1.1054-1.1562-3.0185-.7012-4.1518.1514-1.4219,1.0693-1.666,2.667-1.7036,4.3418-.0938,4.2314-1.3072,8.375-2.1563,12.5019-1.7988,8.7442-3.7016,17.4619-5.3999,26.2276-.6328,3.2666-1.6606,7.6943.8086,10.4912,2.145,2.4306,5.8931,1.7177,8.7593,1.8672l-.1001-.0147c3.5996-.1543,7.2095-.3633,10.7856-.8223,2.7032-.3466,5.0464-1.207,6.1778-3.8466C153.2085,513.1133,153.7056,511.9658,153.293,511.3281Z" transform="translate(-125.75962 -261)"/><path class="cls-4" d="M333.64259,486.1182c-2.8047-1.1455-6.1231-.2061-8.4414,1.5185-3.24319,2.4121-5.458,5.8994-8.03319,8.9522-.29691.3525-4.40431,4.9267-4.68951,3.8799-.7412-2.7178.959-5.7012,1.10351-8.4122.15429-2.9209-2.59471-5.1386-5.29491-3.2666-1.8379,1.2754-.8359,4.8799-1.0058,6.7315l-3.211,17.8916c-.2099,2.1787,1.461,6.8203,4.3858,4.6211a5.17072,5.17072,0,0,0,1.45991-2.9785,21.88976,21.88976,0,0,1,1.502-3.8868,66.61483,66.61483,0,0,1,6.17969-10.2802c1.9511-2.709,4.039-5.8975,6.8398-7.8037a4.48757,4.48757,0,0,1,4.5938-.6016c1.26071.498,2.5361,1.0107,3.8203.2627C334.999,491.4951,336.67089,487.3555,333.64259,486.1182Z" transform="translate(-125.75962 -261)"/></g></g></g></svg>