<?xml version="1.0" encoding="UTF-8"?>
<svg width="21px" height="57px" viewBox="0 0 21 57" version="1.1" xmlns="http://www.w3.org/2000/svg" xmlns:xlink="http://www.w3.org/1999/xlink">
    <!-- Generator: Sketch 3.8.3 (29802) - http://www.bohemiancoding.com/sketch -->
    <title>Group 4</title>
    <desc>Created with Sketch.</desc>
    <defs></defs>
    <g id="Produkte" stroke="none" stroke-width="1" fill="none" fill-rule="evenodd" opacity="0.778859608">
        <g id="Group-4" fill="#FFFFFF">
            <g id="noun_114876_cc" transform="translate(6.000000, 0.000000)">
                <g id="Group">
                    <path d="M1.72826087,56.5254419 L14.6586277,28.8353721 C14.6647418,28.8218322 14.6627038,28.8093339 14.6688179,28.795794 C14.6902174,28.7437176 14.6973505,28.6905997 14.7075408,28.6374817 C14.7156929,28.5916545 14.7279212,28.5468688 14.7279212,28.5010415 C14.7279212,28.4520897 14.7156929,28.4052209 14.7065217,28.3552276 C14.6963315,28.3031512 14.6871603,28.2510748 14.6688179,28.2031645 C14.6637228,28.1896246 14.6647418,28.1760847 14.6586277,28.1625449 L1.72826087,0.47455814 C1.54483696,0.0850265781 1.09035326,-0.0795348837 0.70923913,0.105857143 C0.434103261,0.240214286 0.273097826,0.519343854 0.273097826,0.812013289 C0.273097826,0.923456811 0.296535326,1.03906645 0.348505435,1.14738538 L13.123981,28.5 L0.348505435,55.8526146 C0.29857337,55.9609336 0.27513587,56.0765432 0.27513587,56.1879867 C0.27513587,56.4785731 0.434103261,56.7597857 0.710258152,56.8941429 C1.09035326,57.0784934 1.54483696,56.9149734 1.72826087,56.5254419 L1.72826087,56.5254419 Z" id="Shape"></path>
                </g>
            </g>
            <g id="noun_114876_cc">
                <g id="Group">
                    <path d="M1.72826087,56.5254419 L14.6586277,28.8353721 C14.6647418,28.8218322 14.6627038,28.8093339 14.6688179,28.795794 C14.6902174,28.7437176 14.6973505,28.6905997 14.7075408,28.6374817 C14.7156929,28.5916545 14.7279212,28.5468688 14.7279212,28.5010415 C14.7279212,28.4520897 14.7156929,28.4052209 14.7065217,28.3552276 C14.6963315,28.3031512 14.6871603,28.2510748 14.6688179,28.2031645 C14.6637228,28.1896246 14.6647418,28.1760847 14.6586277,28.1625449 L1.72826087,0.47455814 C1.54483696,0.0850265781 1.09035326,-0.0795348837 0.70923913,0.105857143 C0.434103261,0.240214286 0.273097826,0.519343854 0.273097826,0.812013289 C0.273097826,0.923456811 0.296535326,1.03906645 0.348505435,1.14738538 L13.123981,28.5 L0.348505435,55.8526146 C0.29857337,55.9609336 0.27513587,56.0765432 0.27513587,56.1879867 C0.27513587,56.4785731 0.434103261,56.7597857 0.710258152,56.8941429 C1.09035326,57.0784934 1.54483696,56.9149734 1.72826087,56.5254419 L1.72826087,56.5254419 Z" id="Shape"></path>
                </g>
            </g>
        </g>
    </g>
</svg>