<?xml version="1.0" encoding="UTF-8"?>
<svg width="356px" height="277px" viewBox="0 0 356 277" version="1.1" xmlns="http://www.w3.org/2000/svg" xmlns:xlink="http://www.w3.org/1999/xlink">
    <!-- Generator: Sketch 3.8.3 (29802) - http://www.bohemiancoding.com/sketch -->
    <title>Untitled</title>
    <desc>Created with Sketch.</desc>
    <defs></defs>
    <g id="Page-1" stroke="none" stroke-width="1" fill="none" fill-rule="evenodd">
        <g id="Group-7" transform="translate(69.000000, 0.890015)">
            <path d="M58.426,65.968985 C58.426,65.968985 75.438,94.035985 60.965,119.605985 C48.352,141.890985 52.645,176.644985 83.57,178.195985 C83.57,178.195985 57.48,167.769985 85.023,112.984985 C91.719,94.019985 66.734,68.179985 58.426,65.968985" id="Fill-1" fill="#C84040"></path>
            <path d="M117.738,178.043985 C117.738,178.043985 144.703,161.609985 105.859,87.972985 C93.375,63.824985 119.676,47.257985 122.414,44.433985 C122.414,44.433985 134.465,35.816985 125.367,19.179985 C125.367,19.179985 138.156,31.449985 126.328,48.640985 C113.426,70.074985 124.305,82.761985 124.305,82.761985 C124.305,82.761985 193.719,182.597985 117.738,178.043985" id="Fill-2" fill="#C84040"></path>
            <path d="M98.324,82.925985 C88.023,63.535985 102.445,42.203985 102.445,42.203985 C87.539,59.718985 86.441,64.339985 89.234,86.382985 C94.324,126.562985 83.598,111.015985 77.902,147.773985 C77.559,149.300985 77.488,151.214985 77.438,153.047985 L77.438,153.339985 L77.438,153.609985 C77.316,155.125985 77.52,156.171985 77.52,157.609985 C77.52,168.988985 87.652,178.195985 99.902,178.195985 C112.148,178.195985 122.082,168.968985 122.082,157.589985 C123.504,131.015985 104.625,94.925985 98.324,82.925985" id="Fill-3" fill="#ED6938"></path>
            <path d="M81.477,55.293985 C81.477,55.293985 65.781,42.203985 81.477,22.691985 C94.453,6.558985 91.539,0.386985 91.539,0.386985 C91.539,0.386985 96.688,10.750985 86.566,29.355985 C76.141,48.523985 81.477,55.293985 81.477,55.293985" id="Fill-4" fill="#C84040"></path>
            <polygon id="Fill-5" fill="#B6B6B6" points="0.25 178.359985 42.5 178.359985 42.5 0.109985 0.25 0.109985"></polygon>
            <polygon id="Fill-6" fill="#B6B6B6" points="166.25 178.359985 208.5 178.359985 208.5 0.109985 166.25 0.109985"></polygon>
        </g>
        <g id="Group-12" transform="translate(0.000000, 201.890015)" fill="#373535">
            <path d="M353.484,20.683985 C353.492,20.683985 353.496,20.683985 353.5,20.679985 C353.512,20.675985 353.527,20.671985 353.539,20.664985 C353.523,20.671985 353.504,20.679985 353.484,20.683985 M353.379,20.722985 C353.344,20.734985 353.312,20.742985 353.277,20.754985 C353.152,20.797985 353.027,20.839985 352.906,20.882985 C353.02,20.843985 353.156,20.797985 353.312,20.742985 C353.191,20.785985 353.074,20.824985 352.961,20.863985 C353.137,20.800985 353.309,20.742985 353.457,20.695985 C353.41,20.707985 353.363,20.726985 353.312,20.742985 C353.371,20.722985 353.41,20.711985 353.473,20.687985 L353.48,20.687985 C353.445,20.699985 353.414,20.707985 353.379,20.722985 M352.551,21.000985 C352.574,20.992985 352.602,20.984985 352.629,20.976985 C352.633,20.972985 352.633,20.972985 352.637,20.972985 C352.602,20.984985 352.578,20.992985 352.551,21.000985 M216.656,37.234985 C216.711,37.050985 216.766,36.871985 216.82,36.687985 C216.727,36.996985 216.66,37.226985 216.676,37.171985 C216.949,36.250985 217.09,35.781985 217.148,35.582985 C217.148,35.582985 217.148,35.578985 217.152,35.574985 C217.074,35.836985 216.996,36.097985 216.918,36.355985 C217.086,35.793985 217.254,35.218985 217.148,35.582985 C216.996,36.109985 216.832,36.664985 216.676,37.171985 C217.734,33.605985 220.105,30.047985 223.371,28.156985 C225.668,26.828985 230.48,26.164985 230.848,29.933985 C231.211,33.648985 227.391,36.656985 224.473,38.136985 C222.703,39.035985 220.551,39.925985 218.539,39.824985 C217.812,39.789985 216.762,39.543985 216.617,38.679985 C216.57,38.406985 216.531,37.738985 216.621,37.355985 L216.488,37.808985 C216.531,37.664985 216.578,37.406985 216.656,37.234985 M355.258,20.933985 C354.766,20.304985 354.176,20.718985 353.555,20.687985 C353.5,20.687985 354.285,20.414985 354.059,20.492985 C354.004,20.507985 353.949,20.527985 353.895,20.547985 C353.902,20.543985 353.871,20.554985 353.809,20.574985 C353.801,20.578985 353.797,20.578985 353.789,20.582985 C353.777,20.586985 353.766,20.589985 353.754,20.593985 C353.746,20.597985 353.738,20.597985 353.73,20.601985 C350.926,21.547985 347.723,21.449985 344.801,21.343985 C343.727,21.304985 342.664,21.269985 341.59,21.281985 C340.086,21.297985 337.477,21.574985 336.227,20.582985 C334.469,19.191985 337.098,15.531985 337.727,14.093985 C337.973,13.531985 338.602,12.273985 337.965,11.750985 C337.102,11.043985 335.055,11.847985 334.215,12.195985 C332.84,12.765985 331.691,13.785985 330.945,15.070985 C330.145,16.437985 330.113,18.109985 329.203,19.414985 C327.738,21.515985 324.828,21.129985 322.613,21.550985 C321.457,21.769985 320.152,22.187985 319.309,23.054985 C318.305,24.082985 318.656,25.316985 320.102,25.433985 C322.133,25.597985 327.52,24.007985 327.328,27.593985 C327.254,28.929985 326.625,30.218985 326.078,31.414985 C325.336,33.031985 324.66,34.652985 323.746,36.183985 C322.145,38.871985 320.168,41.371985 318.105,43.722985 C316.703,45.320985 314.789,47.617985 312.547,47.957985 C309.516,48.414985 309.27,43.445985 309.129,41.547985 C308.727,36.171985 310.891,23.550985 302.387,23.671985 C298.77,23.722985 295.969,25.726985 293.613,28.304985 C292.551,29.464985 291.496,30.640985 290.527,31.875985 C290.113,32.410985 289.133,34.410985 288.445,34.547985 C287.691,34.699985 288.555,26.336985 288.703,25.437985 C289.348,21.441985 290.262,17.375985 291.387,13.484985 C291.938,11.578985 292.934,9.355985 292.543,7.332985 C292.062,4.843985 288.223,6.550985 286.672,6.843985 C285.172,7.132985 283.551,7.199985 282.043,6.918985 C280.926,6.711985 279.859,6.285985 278.723,6.164985 C277.852,6.074985 276.898,6.257985 277.078,7.347985 C277.348,9.000985 278.793,10.359985 280.188,11.140985 C281.574,11.914985 283.16,11.605985 284.5,12.297985 C285.617,12.871985 285.621,14.191985 285.48,15.277985 C284.992,19.140985 284.086,23.086985 283.195,26.875985 C282.324,30.586985 281.098,34.304985 278.855,37.425985 C276.578,40.597985 273.719,43.578985 270.848,46.218985 C268.25,48.609985 265.23,50.746985 261.746,51.578985 C258.949,52.246985 255.887,51.957985 253.621,50.050985 C251.117,47.937985 250.062,44.550985 250.137,41.359985 C250.285,35.218985 254.305,29.238985 260.281,27.363985 C261.465,26.992985 262.816,26.839985 263.969,27.410985 C265.219,28.031985 265.734,29.277985 266.312,30.457985 C266.723,31.293985 267.309,32.367985 268.41,32.203985 C269.895,31.984985 271.227,30.437985 271.641,29.066985 C272.844,25.101985 267.75,23.867985 264.887,23.800985 C261.176,23.711985 257.59,24.117985 254.352,26.058985 C250.965,28.089985 248.844,31.250985 246.68,34.449985 C244.387,37.836985 241.809,41.015985 238.77,43.765985 C235.844,46.414985 232.551,48.800985 228.875,50.285985 C225.684,51.578985 221.652,52.437985 218.66,50.207985 C216.883,48.882985 214.016,44.484985 217.676,43.574985 C219.449,43.132985 221.32,43.148985 223.105,42.699985 C225.121,42.187985 227.031,41.371985 228.828,40.339985 C231.793,38.640985 235.039,36.117985 236.012,32.683985 C236.766,30.027985 235.949,27.121985 233.848,25.312985 C228.262,20.515985 218.824,25.043985 214.57,29.570985 C210.117,34.312985 208.566,42.230985 210.469,48.406985 C212.438,54.808985 218.602,57.082985 224.762,55.871985 C226.586,55.515985 228.402,55.066985 230.133,54.379985 C232.102,53.597985 233.688,52.398985 235.355,51.109985 C236.996,49.843985 238.641,48.582985 240.27,47.300985 C241.09,46.660985 242.504,45.023985 243.719,45.211985 C244.684,45.359985 245.086,46.754985 245.34,47.519985 C245.898,49.211985 246.207,50.914985 247.234,52.414985 C249.25,55.363985 253.012,56.671985 256.449,56.843985 C260.215,57.031985 264.012,55.902985 267.168,53.855985 C270.477,51.707985 273.148,48.668985 276.066,46.039985 C276.57,45.582985 279.242,42.816985 279.113,44.957985 C278.953,47.660985 277.59,50.254985 277.738,52.972985 C277.84,54.941985 280.426,58.277985 282.215,55.816985 C283.512,54.031985 283.73,51.515985 284.598,49.511985 C286.262,45.652985 288.605,42.125985 290.742,38.515985 C292.473,35.589985 294.312,32.238985 297.242,30.339985 C299.406,28.937985 301.949,28.925985 302.945,31.652985 C304.367,35.543985 303.445,40.050985 303.586,44.093985 C303.699,47.461985 304.355,51.488985 307.695,53.156985 C311.25,54.933985 314.883,52.402985 317.41,49.961985 C318.715,48.703985 319.762,47.093985 321.145,45.933985 C322.59,44.718985 323.754,45.691985 323.797,47.308985 C323.875,50.574985 325.688,54.621985 328.879,55.968985 C331.582,57.105985 335.059,56.246985 337.516,54.851985 C340.141,53.359985 343.445,51.039985 344.398,48.007985 C344.66,47.168985 344.863,46.121985 344.629,45.250985 C344.273,43.937985 342.965,45.273985 342.496,45.754985 C340.23,48.066985 337.441,51.093985 333.84,50.492985 C329.008,49.679985 328.973,43.679985 329.457,39.953985 C329.785,37.406985 330.422,34.914985 331.051,32.425985 C331.566,30.394985 331.941,28.082985 333.32,26.418985 C334.863,24.558985 338.004,25.050985 340.164,25.058985 C342.879,25.066985 345.559,25.320985 348.266,25.496985 C350.418,25.636985 352.836,25.511985 354.473,23.914985 C355.172,23.230985 355.996,21.879985 355.258,20.933985" id="Fill-8"></path>
            <path d="M168.75,39.250985 C168.75,39.242985 168.754,39.238985 168.754,39.234985 C168.754,39.238985 168.754,39.242985 168.75,39.242985 C168.754,39.238985 168.754,39.238985 168.754,39.230985 C168.754,39.226985 168.758,39.222985 168.758,39.214985 L168.758,39.218985 C168.75,39.254985 168.738,39.293985 168.73,39.332985 C168.723,39.367985 168.719,39.394985 168.707,39.433985 C168.703,39.453985 168.699,39.472985 168.695,39.496985 C168.723,39.367985 168.75,39.250985 168.766,39.179985 L168.762,39.203985 C168.797,39.050985 168.809,38.996985 168.781,39.121985 C168.781,39.125985 168.773,39.144985 168.766,39.179985 L168.77,39.168985 C168.059,42.242985 168.371,40.882985 168.613,39.843985 C168.621,39.804985 168.633,39.765985 168.641,39.726985 C168.648,39.695985 168.652,39.664985 168.664,39.629985 L168.672,39.589985 C168.691,39.496985 168.715,39.406985 168.734,39.312985 C168.688,39.519985 168.641,39.722985 168.594,39.925985 C168.605,39.882985 168.609,39.832985 168.617,39.789985 C167.344,44.894985 164.637,51.093985 158.969,52.218985 C156.254,52.757985 152.293,52.398985 150.562,49.918985 C148.906,47.535985 150.039,44.269985 150.48,41.687985 C151.059,38.277985 150.992,34.996985 153.492,32.308985 C155.504,30.140985 158.602,28.031985 161.695,28.246985 C166.816,28.597985 169.57,35.308985 168.617,39.789985 C168.66,39.609985 168.707,39.425985 168.75,39.250985 M59.16,32.039985 L52.535,41.457985 C51.234,43.336985 50,45.273985 48.465,46.972985 C47.133,48.445985 45.035,50.531985 42.84,50.109985 C38.121,49.203985 39.328,41.879985 40.145,38.789985 C41.203,34.765985 43.246,30.148985 47.23,28.257985 C49.422,27.218985 51.742,27.504985 54.02,28.101985 C55.246,28.425985 56.453,28.875985 57.543,29.531985 C58.172,29.910985 59.758,31.109985 59.16,32.039985 M173.316,29.398985 C173.312,29.390985 173.309,29.386985 173.305,29.379985 C171.914,26.468985 169.18,24.754985 166.078,24.156985 C164.59,23.871985 163.062,23.812985 161.555,23.894985 C159.613,24.004985 158.215,25.320985 156.395,25.789985 C153.188,26.613985 154.309,21.918985 151.414,22.386985 C147.68,22.988985 147.73,28.484985 147.305,31.230985 C146.738,34.918985 144.758,38.175985 142.496,41.070985 C141.402,42.468985 140.23,43.800985 139.059,45.129985 C137.848,46.500985 136.719,47.988985 135.281,49.129985 C134.156,50.019985 132.57,50.925985 131.105,50.363985 C129.531,49.761985 129.195,47.968985 129.23,46.480985 C129.32,42.320985 131.113,38.238985 131.805,34.152985 C132.332,31.031985 133.164,25.722985 129.414,24.187985 C126.238,22.886985 123.156,25.062985 121.055,27.238985 C118.254,30.129985 115.969,33.339985 113.902,36.773985 C112.383,39.304985 110.961,42.293985 108.887,44.421985 C109.477,38.906985 113.133,33.312985 111.859,27.652985 C111.348,25.379985 109.387,23.320985 106.902,23.644985 C104.434,23.972985 102.359,26.011985 100.758,27.761985 C99.004,29.679985 97.535,31.816985 95.984,33.894985 C94.688,35.632985 93.359,37.343985 92.059,39.074985 C91.418,39.925985 90.461,41.273985 90.477,39.410985 C90.504,36.140985 91.676,32.851985 91.32,29.586985 C91.168,28.171985 90.523,26.308985 88.844,26.269985 C88.039,26.254985 87.254,26.488985 86.449,26.480985 C85.871,26.476985 85.086,26.257985 84.742,26.894985 C84.277,27.754985 84.883,29.058985 85.219,29.859985 C85.996,31.730985 83.824,33.461985 82.812,34.773985 C80.285,38.074985 77.953,41.406985 74.84,44.199985 C72.879,45.957985 69.027,49.679985 66.16,47.828985 C63.871,46.351985 63.996,42.644985 64.074,40.273985 C64.195,36.484985 64.914,32.738985 66.195,29.160985 C66.598,28.039985 68.328,24.789985 67.008,23.797985 C66.059,23.086985 64.262,24.070985 63.359,24.394985 C61.395,25.109985 59.734,25.226985 57.762,24.519985 C54.309,23.289985 50.406,23.132985 46.887,24.207985 C41.27,25.914985 37.523,31.336985 35.527,36.574985 C34.461,39.371985 33.797,42.347985 33.684,45.339985 C33.578,48.023985 33.797,51.214985 35.359,53.496985 C39.297,59.246985 46.859,54.125985 50.348,50.722985 C52.16,48.953985 53.359,46.761985 54.965,44.828985 C55.562,44.109985 56.242,43.285985 57.098,42.867985 C58.191,42.336985 58.461,43.519985 58.648,44.355985 C59.375,47.589985 58.988,51.937985 62.492,53.636985 C65.539,55.113985 69.113,53.535985 71.668,51.765985 C74.535,49.777985 76.801,47.082985 79.188,44.574985 C80.281,43.421985 81.402,42.230985 82.68,41.277985 C84.043,40.257985 84.793,40.527985 84.773,42.265985 C84.738,45.410985 83.676,48.453985 83.641,51.578985 C83.625,52.886985 83.863,54.293985 84.777,55.289985 C85.566,56.148985 87.246,56.968985 88.406,56.394985 C90.148,55.539985 89.855,51.996985 90.305,50.390985 C91.406,46.445985 93.383,42.769985 95.648,39.379985 C97.301,36.906985 99.094,34.394985 101.277,32.351985 C102.008,31.668985 102.898,30.839985 103.91,30.625985 C105.148,30.363985 105.496,31.847985 105.562,32.785985 C105.777,35.871985 104.484,39.246985 103.914,42.261985 C103.52,44.343985 103.105,46.425985 102.621,48.488985 C102.168,50.410985 101.371,52.453985 102.125,54.406985 C102.66,55.789985 104.094,56.984985 105.605,56.195985 C106.379,55.793985 106.805,55.011985 107.102,54.226985 C107.512,53.148985 107.93,52.230985 108.559,51.257985 C110.973,47.539985 113.297,43.761985 115.77,40.082985 C117.594,37.375985 119.352,34.105985 121.703,31.816985 C122.438,31.097985 123.82,29.988985 124.938,30.476985 C125.949,30.925985 125.988,32.472985 125.98,33.398985 C125.941,37.082985 124.527,40.656985 123.863,44.246985 C123.234,47.652985 123.016,52.386985 125.699,55.054985 C130.074,59.398985 137.371,52.644985 140.168,49.539985 C140.781,48.855985 143.293,45.410985 143.32,48.175985 C143.359,52.035985 142.199,56.031985 141.512,59.804985 C140.945,62.921985 140.379,66.097985 140.012,69.246985 C139.715,71.793985 139.973,74.613985 143.211,74.414985 C144.301,74.347985 146.309,74.011985 146.176,72.539985 C146.074,71.429985 145.43,70.476985 145.375,69.343985 C145.277,67.421985 145.637,65.433985 146.066,63.566985 C146.477,61.800985 146.754,60.007985 147.199,58.246985 C147.484,57.129985 147.719,55.695985 148.746,55.007985 C149.98,54.175985 151.559,54.695985 152.879,54.964985 C166.309,57.722985 179.32,42.031985 173.316,29.398985" id="Fill-9"></path>
            <path d="M28.293,49.437985 C27.824,48.714985 26.32,50.000985 25.879,50.211985 C23.25,51.464985 20.18,51.613985 17.32,51.800985 C14.387,51.996985 11.02,52.152985 8.602,50.148985 C6.301,48.242985 6.977,45.047985 7.512,42.504985 C9.047,35.226985 10.512,27.929985 12.023,20.644985 C12.918,16.339985 13.645,11.980985 14.77,7.726985 C15.27,5.839985 16.531,2.601985 14.934,0.925985 C13.824,-0.230015 11.914,0.226985 10.781,1.078985 C9.359,2.148985 9.113,3.746985 9.074,5.418985 C8.98,9.652985 7.77,13.793985 6.922,17.921985 C5.121,26.664985 3.219,35.382985 1.52,44.148985 C0.887,47.414985 -0.141,51.843985 2.328,54.640985 C4.473,57.070985 8.223,56.359985 11.09,56.507985 L10.988,56.492985 C14.586,56.336985 18.195,56.129985 21.773,55.668985 C24.477,55.324985 26.82,54.461985 27.949,51.824985 C28.211,51.222985 28.707,50.074985 28.293,49.437985" id="Fill-10"></path>
            <path d="M208.645,24.226985 C205.836,23.082985 202.52,24.023985 200.203,25.746985 C196.957,28.160985 194.742,31.644985 192.168,34.699985 C191.871,35.050985 187.762,39.625985 187.48,38.578985 C186.738,35.859985 188.438,32.875985 188.582,30.164985 C188.738,27.246985 185.988,25.027985 183.289,26.898985 C181.449,28.175985 182.453,31.781985 182.281,33.632985 L179.07,51.523985 C178.859,53.703985 180.531,58.343985 183.457,56.144985 C184.367,55.457985 184.645,54.203985 184.914,53.164985 C185.27,51.804985 185.816,50.550985 186.418,49.277985 C188.137,45.664985 190.258,42.246985 192.598,39.000985 C194.547,36.289985 196.637,33.101985 199.438,31.195985 C200.953,30.164985 202.324,29.918985 204.031,30.593985 C205.293,31.089985 206.566,31.605985 207.852,30.855985 C210,29.605985 211.672,25.464985 208.645,24.226985" id="Fill-11"></path>
        </g>
    </g>
</svg>
