<?xml version="1.0" encoding="UTF-8"?>
<svg width="100px" height="179px" viewBox="0 0 100 179" version="1.1" xmlns="http://www.w3.org/2000/svg" xmlns:xlink="http://www.w3.org/1999/xlink">
    <!-- Generator: Sketch 3.8.3 (29802) - http://www.bohemiancoding.com/sketch -->
    <title>Group</title>
    <desc>Created with Sketch.</desc>
    <defs></defs>
    <g id="Page-1" stroke="none" stroke-width="1" fill="none" fill-rule="evenodd">
        <g id="logo-alt" transform="translate(-54.000000, 0.000000)">
            <g id="Group" transform="translate(54.000000, 0.000000)">
                <path d="M4.426,65.859 C4.426,65.859 21.438,93.926 6.965,119.496 C-5.648,141.781 -1.355,176.535 29.57,178.086 C29.57,178.086 3.48,167.66 31.023,112.875 C37.719,93.91 12.734,68.07 4.426,65.859" id="Fill-1" fill="#C84040"></path>
                <path d="M63.738,177.934 C63.738,177.934 90.703,161.5 51.859,87.863 C39.375,63.715 65.676,47.148 68.414,44.324 C68.414,44.324 80.465,35.707 71.367,19.07 C71.367,19.07 84.156,31.34 72.328,48.531 C59.426,69.965 70.305,82.652 70.305,82.652 C70.305,82.652 139.719,182.488 63.738,177.934" id="Fill-2" fill="#C84040"></path>
                <path d="M44.324,82.816 C34.023,63.426 48.445,42.094 48.445,42.094 C33.539,59.609 32.441,64.23 35.234,86.273 C40.324,126.453 29.598,110.906 23.902,147.664 C23.559,149.191 23.488,151.105 23.438,152.938 L23.438,153.23 L23.438,153.5 C23.316,155.016 23.52,156.062 23.52,157.5 C23.52,168.879 33.652,178.086 45.902,178.086 C58.148,178.086 68.082,168.859 68.082,157.48 C69.504,130.906 50.625,94.816 44.324,82.816" id="Fill-3" fill="#ED6938"></path>
                <path d="M27.477,55.184 C27.477,55.184 11.781,42.094 27.477,22.582 C40.453,6.449 37.539,0.277 37.539,0.277 C37.539,0.277 42.688,10.641 32.566,29.246 C22.141,48.414 27.477,55.184 27.477,55.184" id="Fill-4" fill="#C84040"></path>
            </g>
        </g>
    </g>
</svg>